Castoro Roman.ufo
<glyph name="parenleft" format="2">
  <advance width="397"/>
  <unicode hex="0028"/>
  <outline>
    <contour>
      <point x="300" y="754" type="line"/>
      <point x="140" y="646"/>
      <point x="60" y="488"/>
      <point x="60" y="287" type="curve" smooth="yes"/>
      <point x="60" y="88"/>
      <point x="139" y="-69"/>
      <point x="300" y="-184" type="curve"/>
      <point x="322" y="-163" type="line"/>
      <point x="207" y="-72"/>
      <point x="148" y="78"/>
      <point x="148" y="285" type="curve" smooth="yes"/>
      <point x="148" y="492"/>
      <point x="207" y="641"/>
      <point x="322" y="732" type="curve"/>
    </contour>
  </outline>
</glyph>
<glyph name="plus" format="2">
  <advance width="581"/>
  <unicode hex="002B"/>
  <outline>
    <contour>
      <point x="529" y="211" type="line"/>
      <point x="530" y="226"/>
      <point x="530" y="250"/>
      <point x="529" y="266" type="curve"/>
      <point x="52" y="266" type="line"/>
      <point x="50" y="250"/>
      <point x="50" y="226"/>
      <point x="52" y="211" type="curve"/>
    </contour>
    <contour>
      <point x="263" y="0" type="line"/>
      <point x="277" y="-1"/>
      <point x="304" y="-1"/>
      <point x="318" y="0" type="curve"/>
      <point x="318" y="477" type="line"/>
      <point x="304" y="478"/>
      <point x="277" y="478"/>
      <point x="263" y="477" type="curve"/>
    </contour>
  </outline>
</glyph>
<glyph name="four" format="2">
  <advance width="581"/>
  <unicode hex="0034"/>
  <outline>
    <contour>
      <point x="395" y="-117" type="curve" smooth="yes"/>
      <point x="412" y="-117"/>
      <point x="429" y="-117"/>
      <point x="445" y="-116" type="curve"/>
      <point x="445" y="529" type="line" smooth="yes"/>
      <point x="445" y="548"/>
      <point x="445" y="569"/>
      <point x="447" y="620" type="curve"/>
      <point x="424" y="624"/>
      <point x="397" y="626"/>
      <point x="370" y="626" type="curve"/>
      <point x="249" y="473"/>
      <point x="136" y="324"/>
      <point x="20" y="165" type="curve"/>
      <point x="20" y="147"/>
      <point x="21" y="127"/>
      <point x="23" y="109" type="curve"/>
      <point x="551" y="109" type="line"/>
      <point x="553" y="133"/>
      <point x="555" y="160"/>
      <point x="556" y="187" type="curve"/>
      <point x="89" y="187" type="line"/>
      <point x="173" y="304"/>
      <point x="254" y="414"/>
      <point x="345" y="529" type="curve"/>
      <point x="345" y="-116" type="line"/>
      <point x="360" y="-117"/>
      <point x="379" y="-117"/>
    </contour>
  </outline>
</glyph>
<glyph name="equal" format="2">
  <advance width="581"/>
  <unicode hex="003D"/>
  <outline>
    <contour>
      <point x="52" y="356" type="line"/>
      <point x="50" y="340"/>
      <point x="50" y="316"/>
      <point x="52" y="301" type="curve"/>
      <point x="529" y="301" type="line"/>
      <point x="530" y="316"/>
      <point x="530" y="340"/>
      <point x="529" y="356" type="curve"/>
    </contour>
    <contour>
      <point x="52" y="176" type="line"/>
      <point x="50" y="160"/>
      <point x="50" y="136"/>
      <point x="52" y="121" type="curve"/>
      <point x="529" y="121" type="line"/>
      <point x="530" y="136"/>
      <point x="530" y="160"/>
      <point x="529" y="176" type="curve"/>
    </contour>
  </outline>
</glyph>
<glyph name="F" format="2">
  <advance width="607"/>
  <unicode hex="0046"/>
  <outline>
    <contour>
      <point x="30" y="-1" type="curve"/>
      <point x="73" y="-1"/>
      <point x="145" y="1"/>
      <point x="184" y="1" type="curve" smooth="yes"/>
      <point x="223" y="1"/>
      <point x="302" y="-1"/>
      <point x="344" y="-1" type="curve"/>
      <point x="346" y="9"/>
      <point x="346" y="21"/>
      <point x="344" y="31" type="curve"/>
      <point x="292" y="35"/>
      <point x="267" y="37"/>
      <point x="254" y="49" type="curve" smooth="yes"/>
      <point x="240" y="62"/>
      <point x="240" y="82"/>
      <point x="240" y="124" type="curve" smooth="yes"/>
      <point x="240" y="658" type="line"/>
      <point x="385" y="658" type="line" smooth="yes"/>
      <point x="437" y="658"/>
      <point x="473" y="649"/>
      <point x="498" y="629" type="curve" smooth="yes"/>
      <point x="521" y="611"/>
      <point x="542" y="578"/>
      <point x="559" y="535" type="curve"/>
      <point x="569" y="533"/>
      <point x="581" y="534"/>
      <point x="592" y="535" type="curve"/>
      <point x="583" y="596"/>
      <point x="574" y="650"/>
      <point x="568" y="701" type="curve"/>
      <point x="563" y="701"/>
      <point x="378" y="699"/>
      <point x="227" y="699" type="curve" smooth="yes"/>
      <point x="105" y="699"/>
      <point x="97" y="701"/>
      <point x="33" y="701" type="curve"/>
      <point x="32" y="690"/>
      <point x="32" y="679"/>
      <point x="33" y="669" type="curve"/>
      <point x="125" y="661"/>
      <point x="130" y="659"/>
      <point x="130" y="576" type="curve" smooth="yes"/>
      <point x="130" y="111" type="line" smooth="yes"/>
      <point x="130" y="39"/>
      <point x="126" y="40"/>
      <point x="30" y="31" type="curve"/>
      <point x="29" y="20"/>
      <point x="29" y="9"/>
    </contour>
    <contour>
      <point x="435" y="219" type="curve"/>
      <point x="447" y="217"/>
      <point x="459" y="217"/>
      <point x="469" y="219" type="curve"/>
      <point x="467" y="305"/>
      <point x="467" y="329"/>
      <point x="467" y="351" type="curve" smooth="yes"/>
      <point x="467" y="374"/>
      <point x="467" y="397"/>
      <point x="469" y="482" type="curve"/>
      <point x="459" y="484"/>
      <point x="446" y="484"/>
      <point x="435" y="482" type="curve"/>
      <point x="421" y="384"/>
      <point x="401" y="375"/>
      <point x="306" y="375" type="curve" smooth="yes"/>
      <point x="220" y="375" type="line"/>
      <point x="220" y="331" type="line"/>
      <point x="315" y="331" type="line" smooth="yes"/>
      <point x="401" y="331"/>
      <point x="422" y="324"/>
    </contour>
  </outline>
</glyph>
<glyph name="T" format="2">
  <advance width="680"/>
  <unicode hex="0054"/>
  <outline>
    <contour>
      <point x="183" y="-1" type="curve"/>
      <point x="225" y="-1"/>
      <point x="301" y="1"/>
      <point x="339" y="1" type="curve" smooth="yes"/>
      <point x="378" y="1"/>
      <point x="455" y="-1"/>
      <point x="497" y="-1" type="curve"/>
      <point x="499" y="9"/>
      <point x="499" y="21"/>
      <point x="497" y="31" type="curve"/>
      <point x="397" y="39"/>
      <point x="395" y="40"/>
      <point x="395" y="124" type="curve" smooth="yes"/>
      <point x="395" y="682" type="line"/>
      <point x="285" y="682" type="line"/>
      <point x="285" y="111" type="line" smooth="yes"/>
      <point x="285" y="39"/>
      <point x="282" y="40"/>
      <point x="183" y="31" type="curve"/>
      <point x="182" y="20"/>
      <point x="182" y="9"/>
    </contour>
    <contour>
      <point x="12" y="525" type="curve"/>
      <point x="22" y="524"/>
      <point x="34" y="524"/>
      <point x="44" y="525" type="curve"/>
      <point x="79" y="615"/>
      <point x="107" y="657"/>
      <point x="213" y="657" type="curve" smooth="yes"/>
      <point x="466" y="657" type="line" smooth="yes"/>
      <point x="571" y="657"/>
      <point x="597" y="616"/>
      <point x="635" y="525" type="curve"/>
      <point x="645" y="524"/>
      <point x="657" y="524"/>
      <point x="668" y="525" type="curve"/>
      <point x="660" y="589"/>
      <point x="655" y="648"/>
      <point x="650" y="702" type="curve"/>
      <point x="564" y="697"/>
      <point x="456" y="697"/>
      <point x="341" y="697" type="curve" smooth="yes"/>
      <point x="228" y="697"/>
      <point x="120" y="697"/>
      <point x="33" y="702" type="curve"/>
      <point x="27" y="647"/>
      <point x="20" y="589"/>
    </contour>
  </outline>
</glyph>
<glyph name="Z" format="2">
  <advance width="656"/>
  <unicode hex="005A"/>
  <outline>
    <contour>
      <point x="617" y="679" type="line"/>
      <point x="617" y="687"/>
      <point x="615" y="694"/>
      <point x="613" y="700" type="curve"/>
      <point x="578" y="700"/>
      <point x="523" y="697"/>
      <point x="362" y="697" type="curve" smooth="yes"/>
      <point x="257" y="697"/>
      <point x="164" y="697"/>
      <point x="77" y="702" type="curve"/>
      <point x="71" y="645"/>
      <point x="64" y="585"/>
      <point x="53" y="519" type="curve"/>
      <point x="65" y="518"/>
      <point x="76" y="518"/>
      <point x="87" y="519" type="curve"/>
      <point x="102" y="567"/>
      <point x="121" y="602"/>
      <point x="142" y="622" type="curve" smooth="yes"/>
      <point x="167" y="646"/>
      <point x="202" y="657"/>
      <point x="254" y="657" type="curve" smooth="yes"/>
      <point x="488" y="657" type="line"/>
      <point x="481" y="670" type="line"/>
      <point x="25" y="19" type="line"/>
      <point x="25" y="13"/>
      <point x="26" y="6"/>
      <point x="29" y="-1" type="curve"/>
      <point x="72" y="-1"/>
      <point x="118" y="1"/>
      <point x="276" y="1" type="curve" smooth="yes"/>
      <point x="475" y="1"/>
      <point x="575" y="0"/>
      <point x="595" y="0" type="curve"/>
      <point x="600" y="49"/>
      <point x="611" y="115"/>
      <point x="626" y="198" type="curve"/>
      <point x="616" y="199"/>
      <point x="605" y="199"/>
      <point x="595" y="198" type="curve"/>
      <point x="573" y="146"/>
      <point x="550" y="107"/>
      <point x="530" y="86" type="curve" smooth="yes"/>
      <point x="501" y="56"/>
      <point x="458" y="43"/>
      <point x="393" y="43" type="curve" smooth="yes"/>
      <point x="153" y="43" type="line"/>
      <point x="162" y="31" type="line"/>
    </contour>
  </outline>
</glyph>
<glyph name="bracketleft" format="2">
  <advance width="409"/>
  <unicode hex="005B"/>
  <outline>
    <contour>
      <point x="329" y="-183" type="line"/>
      <point x="329" y="-140" type="line"/>
      <point x="172" y="-140" type="line"/>
      <point x="172" y="710" type="line"/>
      <point x="329" y="710" type="line"/>
      <point x="329" y="753" type="line"/>
      <point x="100" y="753" type="line"/>
      <point x="100" y="-183" type="line"/>
    </contour>
  </outline>
</glyph>
<glyph name="backslash" format="2">
  <advance width="377"/>
  <unicode hex="005C"/>
  <outline>
    <contour>
      <point x="342" y="-177" type="line"/>
      <point x="406" y="-177" type="line"/>
      <point x="79" y="748" type="line"/>
      <point x="14" y="748" type="line"/>
    </contour>
  </outline>
</glyph>
<glyph name="bracketright" format="2">
  <advance width="409"/>
  <unicode hex="005D"/>
  <outline>
    <contour>
      <point x="80" y="753" type="line"/>
      <point x="80" y="710" type="line"/>
      <point x="236" y="710" type="line"/>
      <point x="236" y="-140" type="line"/>
      <point x="80" y="-140" type="line"/>
      <point x="80" y="-183" type="line"/>
      <point x="309" y="-183" type="line"/>
      <point x="309" y="753" type="line"/>
    </contour>
  </outline>
</glyph>
<glyph name="a" format="2">
  <advance width="493"/>
  <unicode hex="0061"/>
  <outline>
    <contour>
      <point x="383" y="-10" type="curve" smooth="yes"/>
      <point x="420" y="-10"/>
      <point x="458" y="5"/>
      <point x="491" y="41" type="curve"/>
      <point x="490" y="48"/>
      <point x="488" y="56"/>
      <point x="483" y="63" type="curve"/>
      <point x="458" y="55"/>
      <point x="441" y="51"/>
      <point x="428" y="51" type="curve" smooth="yes"/>
      <point x="408" y="51"/>
      <point x="400" y="62"/>
      <point x="400" y="83" type="curve" smooth="yes"/>
      <point x="400" y="148"/>
      <point x="405" y="310"/>
      <point x="405" y="373" type="curve" smooth="yes"/>
      <point x="405" y="450"/>
      <point x="340" y="492"/>
      <point x="266" y="492" type="curve" smooth="yes"/>
      <point x="185" y="492"/>
      <point x="45" y="441"/>
      <point x="45" y="376" type="curve" smooth="yes"/>
      <point x="45" y="352"/>
      <point x="63" y="333"/>
      <point x="92" y="333" type="curve" smooth="yes"/>
      <point x="145" y="333"/>
      <point x="177" y="400"/>
      <point x="171" y="448" type="curve"/>
      <point x="164" y="433" type="line"/>
      <point x="175" y="440"/>
      <point x="193" y="445"/>
      <point x="216" y="445" type="curve" smooth="yes"/>
      <point x="264" y="445"/>
      <point x="303" y="418"/>
      <point x="303" y="371" type="curve" smooth="yes"/>
      <point x="303" y="323"/>
      <point x="302" y="280"/>
      <point x="302" y="242" type="curve" smooth="yes"/>
      <point x="300" y="76" type="line"/>
      <point x="298" y="64" type="line"/>
      <point x="308" y="14"/>
      <point x="336" y="-10"/>
    </contour>
    <contour>
      <point x="155" y="-12" type="curve" smooth="yes"/>
      <point x="207" y="-12"/>
      <point x="256" y="12"/>
      <point x="306" y="62" type="curve"/>
      <point x="309" y="87" type="line"/>
      <point x="263" y="66"/>
      <point x="231" y="53"/>
      <point x="206" y="53" type="curve" smooth="yes"/>
      <point x="168" y="53"/>
      <point x="141" y="78"/>
      <point x="141" y="125" type="curve" smooth="yes"/>
      <point x="141" y="183"/>
      <point x="183" y="220"/>
      <point x="318" y="235" type="curve"/>
      <point x="316" y="271" type="line"/>
      <point x="126" y="249"/>
      <point x="33" y="195"/>
      <point x="33" y="103" type="curve" smooth="yes"/>
      <point x="33" y="31"/>
      <point x="87" y="-12"/>
    </contour>
  </outline>
  <guideline angle="89.0719" x="388" y="0"/>
</glyph>
<glyph name="f" format="2">
  <advance width="330"/>
  <unicode hex="0066"/>
  <outline>
    <contour>
      <point x="330" y="427" type="line"/>
      <point x="332" y="443"/>
      <point x="332" y="458"/>
      <point x="330" y="473" type="curve"/>
      <point x="194" y="473" type="line"/>
      <point x="194" y="427" type="line"/>
    </contour>
    <contour>
      <point x="329" y="755" type="curve" smooth="yes"/>
      <point x="272" y="755"/>
      <point x="215" y="735"/>
      <point x="174" y="696" type="curve" smooth="yes"/>
      <point x="113" y="637"/>
      <point x="106" y="551"/>
      <point x="104" y="509" type="curve" smooth="yes"/>
      <point x="102" y="470"/>
      <point x="94" y="465"/>
      <point x="20" y="454" type="curve"/>
      <point x="18" y="446"/>
      <point x="18" y="437"/>
      <point x="20" y="427" type="curve"/>
      <point x="103" y="427" type="line"/>
      <point x="103" y="104" type="line" smooth="yes"/>
      <point x="103" y="38"/>
      <point x="96" y="34"/>
      <point x="27" y="30" type="curve"/>
      <point x="26" y="19"/>
      <point x="26" y="9"/>
      <point x="27" y="-1" type="curve"/>
      <point x="69" y="-1"/>
      <point x="100" y="1"/>
      <point x="154" y="1" type="curve" smooth="yes"/>
      <point x="208" y="1"/>
      <point x="254" y="-1"/>
      <point x="299" y="-1" type="curve"/>
      <point x="300" y="10"/>
      <point x="300" y="21"/>
      <point x="299" y="30" type="curve"/>
      <point x="213" y="34"/>
      <point x="205" y="36"/>
      <point x="205" y="114" type="curve" smooth="yes"/>
      <point x="205" y="531" type="line" smooth="yes"/>
      <point x="205" y="661"/>
      <point x="233" y="711"/>
      <point x="296" y="711" type="curve" smooth="yes"/>
      <point x="314" y="711"/>
      <point x="326" y="707"/>
      <point x="338" y="702" type="curve"/>
      <point x="329" y="717" type="line"/>
      <point x="322" y="677"/>
      <point x="352" y="625"/>
      <point x="403" y="625" type="curve" smooth="yes"/>
      <point x="437" y="625"/>
      <point x="456" y="646"/>
      <point x="456" y="677" type="curve" smooth="yes"/>
      <point x="456" y="734"/>
      <point x="386" y="755"/>
    </contour>
  </outline>
</glyph>
<glyph name="g" format="2">
  <advance width="548"/>
  <unicode hex="0067"/>
  <outline>
    <contour>
      <point x="223" y="-255" type="curve" smooth="yes"/>
      <point x="371" y="-255"/>
      <point x="512" y="-187"/>
      <point x="512" y="-55" type="curve" smooth="yes"/>
      <point x="512" y="27"/>
      <point x="457" y="78"/>
      <point x="324" y="78" type="curve" smooth="yes"/>
      <point x="304" y="78"/>
      <point x="253" y="77"/>
      <point x="222" y="77" type="curve" smooth="yes"/>
      <point x="154" y="77"/>
      <point x="133" y="82"/>
      <point x="133" y="115" type="curve" smooth="yes"/>
      <point x="133" y="138"/>
      <point x="142" y="154"/>
      <point x="165" y="175" type="curve"/>
      <point x="140" y="189" type="line"/>
      <point x="80" y="149"/>
      <point x="52" y="114"/>
      <point x="52" y="74" type="curve" smooth="yes"/>
      <point x="52" y="21"/>
      <point x="97" y="-16"/>
      <point x="180" y="-16" type="curve" smooth="yes"/>
      <point x="225" y="-16"/>
      <point x="263" y="-15"/>
      <point x="289" y="-15" type="curve" smooth="yes"/>
      <point x="395" y="-15"/>
      <point x="428" y="-37"/>
      <point x="428" y="-93" type="curve" smooth="yes"/>
      <point x="428" y="-186"/>
      <point x="336" y="-210"/>
      <point x="268" y="-210" type="curve" smooth="yes"/>
      <point x="192" y="-210"/>
      <point x="120" y="-181"/>
      <point x="120" y="-111" type="curve" smooth="yes"/>
      <point x="120" y="-74"/>
      <point x="140" y="-41"/>
      <point x="185" y="-7" type="curve"/>
      <point x="142" y="-4" type="line"/>
      <point x="78" y="-45"/>
      <point x="27" y="-77"/>
      <point x="27" y="-138" type="curve" smooth="yes"/>
      <point x="27" y="-211"/>
      <point x="106" y="-255"/>
    </contour>
    <contour>
      <point x="251" y="150" type="curve" smooth="yes"/>
      <point x="357" y="150"/>
      <point x="447" y="213"/>
      <point x="447" y="323" type="curve" smooth="yes"/>
      <point x="447" y="423"/>
      <point x="370" y="492"/>
      <point x="261" y="492" type="curve" smooth="yes"/>
      <point x="154" y="492"/>
      <point x="58" y="424"/>
      <point x="58" y="315" type="curve" smooth="yes"/>
      <point x="58" y="213"/>
      <point x="146" y="150"/>
    </contour>
    <contour>
      <point x="253" y="185" type="curve" smooth="yes"/>
      <point x="194" y="185"/>
      <point x="160" y="240"/>
      <point x="160" y="325" type="curve" smooth="yes"/>
      <point x="160" y="409"/>
      <point x="193" y="457"/>
      <point x="250" y="457" type="curve" smooth="yes"/>
      <point x="311" y="457"/>
      <point x="344" y="404"/>
      <point x="344" y="319" type="curve" smooth="yes"/>
      <point x="344" y="235"/>
      <point x="311" y="185"/>
    </contour>
    <contour>
      <point x="505" y="399" type="curve" smooth="yes"/>
      <point x="531" y="399"/>
      <point x="553" y="418"/>
      <point x="553" y="447" type="curve" smooth="yes"/>
      <point x="553" y="476"/>
      <point x="532" y="492"/>
      <point x="497" y="492" type="curve" smooth="yes"/>
      <point x="462" y="492"/>
      <point x="421" y="475"/>
      <point x="384" y="443" type="curve"/>
      <point x="405" y="420" type="line"/>
      <point x="424" y="432"/>
      <point x="433" y="438"/>
      <point x="455" y="443" type="curve"/>
      <point x="460" y="415"/>
      <point x="480" y="399"/>
    </contour>
  </outline>
</glyph>
<glyph name="t" format="2">
  <advance width="362"/>
  <unicode hex="0074"/>
  <outline>
    <contour>
      <point x="219" y="-12" type="curve" smooth="yes"/>
      <point x="268" y="-12"/>
      <point x="313" y="3"/>
      <point x="352" y="32" type="curve"/>
      <point x="351" y="42"/>
      <point x="347" y="54"/>
      <point x="341" y="62" type="curve"/>
      <point x="320" y="49"/>
      <point x="297" y="43"/>
      <point x="274" y="43" type="curve" smooth="yes"/>
      <point x="219" y="43"/>
      <point x="190" y="71"/>
      <point x="190" y="124" type="curve" smooth="yes"/>
      <point x="190" y="297"/>
      <point x="193" y="473"/>
      <point x="196" y="589" type="curve"/>
      <point x="188" y="590"/>
      <point x="177" y="591"/>
      <point x="166" y="591" type="curve"/>
      <point x="133" y="528"/>
      <point x="85" y="483"/>
      <point x="17" y="454" type="curve"/>
      <point x="15" y="446"/>
      <point x="15" y="437"/>
      <point x="17" y="427" type="curve"/>
      <point x="93" y="427" type="line"/>
      <point x="92" y="325"/>
      <point x="89" y="216"/>
      <point x="89" y="99" type="curve" smooth="yes"/>
      <point x="89" y="27"/>
      <point x="139" y="-12"/>
    </contour>
    <contour>
      <point x="345" y="427" type="line"/>
      <point x="347" y="443"/>
      <point x="347" y="458"/>
      <point x="345" y="473" type="curve"/>
      <point x="182" y="473" type="line"/>
      <point x="182" y="427" type="line"/>
    </contour>
  </outline>
  <guideline angle="90" x="-187" y="0"/>
</glyph>
<glyph name="braceright" format="2">
  <advance width="395"/>
  <unicode hex="007D"/>
  <outline>
    <contour>
      <point x="277" y="284" type="line"/>
      <point x="190" y="266"/>
      <point x="176" y="225"/>
      <point x="176" y="146" type="curve" smooth="yes"/>
      <point x="176" y="-45" type="line" smooth="yes"/>
      <point x="176" y="-120"/>
      <point x="151" y="-157"/>
      <point x="80" y="-157" type="curve"/>
      <point x="80" y="-191" type="line"/>
      <point x="205" y="-191"/>
      <point x="262" y="-156"/>
      <point x="262" y="-19" type="curve" smooth="yes"/>
      <point x="262" y="171" type="line" smooth="yes"/>
      <point x="262" y="245"/>
      <point x="283" y="262"/>
      <point x="350" y="272" type="curve"/>
      <point x="350" y="300" type="line"/>
      <point x="283" y="310"/>
      <point x="262" y="327"/>
      <point x="262" y="401" type="curve" smooth="yes"/>
      <point x="262" y="590" type="line" smooth="yes"/>
      <point x="262" y="725"/>
      <point x="205" y="761"/>
      <point x="80" y="761" type="curve"/>
      <point x="80" y="726" type="line"/>
      <point x="151" y="726"/>
      <point x="176" y="689"/>
      <point x="176" y="616" type="curve" smooth="yes"/>
      <point x="176" y="425" type="line" smooth="yes"/>
      <point x="176" y="347"/>
      <point x="190" y="305"/>
      <point x="277" y="288" type="curve"/>
    </contour>
  </outline>
  <guideline angle="0" x="0" y="286"/>
</glyph>
<glyph name="guillemotleft" format="2">
  <advance width="477"/>
  <unicode hex="00AB"/>
  <outline>
    <contour>
      <point x="125" y="239" type="line"/>
      <point x="169" y="278"/>
      <point x="236" y="355"/>
      <point x="273" y="411" type="curve"/>
      <point x="269" y="419"/>
      <point x="261" y="425"/>
      <point x="252" y="430" type="curve"/>
      <point x="195" y="374"/>
      <point x="118" y="312"/>
      <point x="43" y="263" type="curve"/>
      <point x="41" y="255"/>
      <point x="40" y="247"/>
      <point x="40" y="239" type="curve" smooth="yes"/>
      <point x="40" y="235"/>
      <point x="40" y="231"/>
      <point x="41" y="227" type="curve"/>
      <point x="113" y="180"/>
      <point x="188" y="118"/>
      <point x="247" y="61" type="curve"/>
      <point x="255" y="66"/>
      <point x="264" y="72"/>
      <point x="268" y="79" type="curve"/>
      <point x="233" y="134"/>
      <point x="167" y="213"/>
      <point x="125" y="251" type="curve"/>
    </contour>
    <contour>
      <point x="299" y="238" type="line"/>
      <point x="341" y="274"/>
      <point x="407" y="349"/>
      <point x="442" y="405" type="curve"/>
      <point x="438" y="411"/>
      <point x="430" y="417"/>
      <point x="422" y="422" type="curve"/>
      <point x="367" y="368"/>
      <point x="296" y="310"/>
      <point x="223" y="262" type="curve"/>
      <point x="221" y="254"/>
      <point x="220" y="247"/>
      <point x="220" y="239" type="curve" smooth="yes"/>
      <point x="220" y="235"/>
      <point x="220" y="231"/>
      <point x="221" y="227" type="curve"/>
      <point x="291" y="181"/>
      <point x="358" y="122"/>
      <point x="416" y="67" type="curve"/>
      <point x="423" y="72"/>
      <point x="430" y="78"/>
      <point x="435" y="84" type="curve"/>
      <point x="402" y="138"/>
      <point x="339" y="213"/>
      <point x="299" y="250" type="curve"/>
    </contour>
  </outline>
  <guideline angle="0" x="0" y="239"/>
</glyph>
<glyph name="threesuperior" format="2">
  <advance width="373"/>
  <unicode hex="00B3"/>
  <outline>
    <contour>
      <point x="99" y="566" type="line"/>
      <point x="100" y="556"/>
      <point x="102" y="548"/>
      <point x="107" y="540" type="curve"/>
      <point x="121" y="544"/>
      <point x="131" y="547"/>
      <point x="148" y="547" type="curve" smooth="yes"/>
      <point x="217" y="547"/>
      <point x="253" y="498"/>
      <point x="253" y="447" type="curve" smooth="yes"/>
      <point x="253" y="391"/>
      <point x="211" y="356"/>
      <point x="160" y="356" type="curve" smooth="yes"/>
      <point x="151" y="356"/>
      <point x="137" y="357"/>
      <point x="125" y="362" type="curve"/>
      <point x="140" y="349" type="line"/>
      <point x="127" y="417"/>
      <point x="93" y="454"/>
      <point x="58" y="454" type="curve" smooth="yes"/>
      <point x="33" y="454"/>
      <point x="16" y="436"/>
      <point x="16" y="409" type="curve" smooth="yes"/>
      <point x="16" y="359"/>
      <point x="76" y="324"/>
      <point x="153" y="324" type="curve" smooth="yes"/>
      <point x="239" y="324"/>
      <point x="339" y="367"/>
      <point x="339" y="470" type="curve" smooth="yes"/>
      <point x="339" y="540"/>
      <point x="293" y="583"/>
      <point x="201" y="594" type="curve"/>
    </contour>
    <contour>
      <point x="203" y="582" type="line"/>
      <point x="282" y="614"/>
      <point x="315" y="654"/>
      <point x="315" y="696" type="curve" smooth="yes"/>
      <point x="315" y="743"/>
      <point x="272" y="788"/>
      <point x="188" y="788" type="curve" smooth="yes"/>
      <point x="133" y="788"/>
      <point x="80" y="769"/>
      <point x="36" y="715" type="curve"/>
      <point x="39" y="707"/>
      <point x="43" y="700"/>
      <point x="51" y="693" type="curve"/>
      <point x="76" y="716"/>
      <point x="109" y="729"/>
      <point x="145" y="729" type="curve" smooth="yes"/>
      <point x="200" y="729"/>
      <point x="228" y="698"/>
      <point x="228" y="666" type="curve" smooth="yes"/>
      <point x="228" y="626"/>
      <point x="187" y="589"/>
      <point x="99" y="566" type="curve"/>
    </contour>
  </outline>
</glyph>
<glyph name="onesuperior" format="2">
  <advance width="316"/>
  <unicode hex="00B9"/>
  <outline>
    <contour>
      <point x="43" y="361" type="curve"/>
      <point x="42" y="351"/>
      <point x="42" y="342"/>
      <point x="43" y="333" type="curve"/>
      <point x="77" y="333"/>
      <point x="106" y="336"/>
      <point x="169" y="336" type="curve" smooth="yes"/>
      <point x="235" y="336"/>
      <point x="260" y="333"/>
      <point x="289" y="333" type="curve"/>
      <point x="291" y="342"/>
      <point x="291" y="351"/>
      <point x="289" y="361" type="curve"/>
      <point x="209" y="368"/>
      <point x="208" y="369"/>
      <point x="208" y="443" type="curve" smooth="yes"/>
      <point x="208" y="665" type="line" smooth="yes"/>
      <point x="208" y="714"/>
      <point x="216" y="750"/>
      <point x="230" y="769" type="curve"/>
      <point x="227" y="777"/>
      <point x="222" y="782"/>
      <point x="217" y="788" type="curve"/>
      <point x="147" y="758"/>
      <point x="98" y="739"/>
      <point x="16" y="716" type="curve"/>
      <point x="17" y="706"/>
      <point x="19" y="698"/>
      <point x="23" y="688" type="curve"/>
      <point x="59" y="696"/>
      <point x="86" y="700"/>
      <point x="99" y="700" type="curve" smooth="yes"/>
      <point x="120" y="700"/>
      <point x="123" y="691"/>
      <point x="123" y="662" type="curve" smooth="yes"/>
      <point x="123" y="434" type="line" smooth="yes"/>
      <point x="123" y="372"/>
      <point x="122" y="369"/>
    </contour>
  </outline>
</glyph>
<glyph name="dcroat" format="2">
  <advance width="596"/>
  <unicode hex="0111"/>
  <outline>
    <contour>
      <point x="416" y="-13" type="line"/>
      <point x="463" y="1"/>
      <point x="513" y="10"/>
      <point x="567" y="18" type="curve"/>
      <point x="569" y="27"/>
      <point x="569" y="36"/>
      <point x="567" y="45" type="curve"/>
      <point x="495" y="56"/>
      <point x="495" y="66"/>
      <point x="495" y="142" type="curve" smooth="yes"/>
      <point x="495" y="638" type="line" smooth="yes"/>
      <point x="495" y="682"/>
      <point x="495" y="719"/>
      <point x="497" y="749" type="curve"/>
      <point x="480" y="755" type="line"/>
      <point x="421" y="730"/>
      <point x="365" y="717"/>
      <point x="312" y="710" type="curve"/>
      <point x="310" y="700"/>
      <point x="310" y="692"/>
      <point x="312" y="683" type="curve"/>
      <point x="382" y="677"/>
      <point x="394" y="667"/>
      <point x="394" y="605" type="curve" smooth="yes"/>
      <point x="394" y="451" type="line"/>
      <point x="395" y="408" type="line"/>
      <point x="395" y="80" type="line"/>
      <point x="400" y="-6" type="line"/>
    </contour>
    <contour>
      <point x="244" y="-12" type="curve" smooth="yes"/>
      <point x="307" y="-12"/>
      <point x="355" y="15"/>
      <point x="405" y="70" type="curve"/>
      <point x="402" y="117" type="line"/>
      <point x="375" y="74"/>
      <point x="338" y="51"/>
      <point x="288" y="51" type="curve" smooth="yes"/>
      <point x="181" y="51"/>
      <point x="143" y="152"/>
      <point x="143" y="252" type="curve" smooth="yes"/>
      <point x="143" y="366"/>
      <point x="190" y="434"/>
      <point x="282" y="434" type="curve" smooth="yes"/>
      <point x="334" y="434"/>
      <point x="375" y="411"/>
      <point x="405" y="364" type="curve"/>
      <point x="411" y="454" type="line"/>
      <point x="368" y="470"/>
      <point x="330" y="475"/>
      <point x="294" y="475" type="curve" smooth="yes"/>
      <point x="139" y="475"/>
      <point x="39" y="358"/>
      <point x="39" y="218" type="curve" smooth="yes"/>
      <point x="39" y="96"/>
      <point x="119" y="-12"/>
    </contour>
    <contour>
      <point x="578" y="548" type="line"/>
      <point x="580" y="564"/>
      <point x="580" y="578"/>
      <point x="578" y="593" type="curve"/>
      <point x="218" y="593" type="line"/>
      <point x="216" y="578"/>
      <point x="216" y="564"/>
      <point x="218" y="548" type="curve"/>
    </contour>
  </outline>
</glyph>
<glyph name="halfringright" format="2">
  <advance width="241"/>
  <unicode hex="02BE"/>
  <outline>
    <contour>
      <point x="50" y="661" type="line"/>
      <point x="95" y="661"/>
      <point x="131" y="626"/>
      <point x="131" y="566" type="curve" smooth="yes"/>
      <point x="131" y="507"/>
      <point x="97" y="472"/>
      <point x="50" y="472" type="curve"/>
      <point x="50" y="432" type="line"/>
      <point x="134" y="432"/>
      <point x="206" y="477"/>
      <point x="206" y="571" type="curve" smooth="yes"/>
      <point x="206" y="660"/>
      <point x="136" y="699"/>
      <point x="50" y="699" type="curve"/>
    </contour>
  </outline>
</glyph>
<glyph name="candrabinducomb" format="2">
  <unicode hex="0310"/>
  <outline>
    <contour>
      <point x="-410" y="730" type="curve"/>
      <point x="-421" y="729"/>
      <point x="-431" y="727"/>
      <point x="-440" y="723" type="curve"/>
      <point x="-428" y="601"/>
      <point x="-376" y="537"/>
      <point x="-286" y="537" type="curve" smooth="yes"/>
      <point x="-196" y="537"/>
      <point x="-140" y="601"/>
      <point x="-129" y="723" type="curve"/>
      <point x="-138" y="727"/>
      <point x="-148" y="729"/>
      <point x="-159" y="730" type="curve"/>
      <point x="-170" y="651"/>
      <point x="-215" y="615"/>
      <point x="-285" y="615" type="curve" smooth="yes"/>
      <point x="-352" y="615"/>
      <point x="-395" y="646"/>
    </contour>
    <contour>
      <point x="-350" y="743" type="curve" smooth="yes"/>
      <point x="-350" y="709"/>
      <point x="-323" y="680"/>
      <point x="-288" y="680" type="curve" smooth="yes"/>
      <point x="-250" y="680"/>
      <point x="-223" y="712"/>
      <point x="-223" y="744" type="curve" smooth="yes"/>
      <point x="-223" y="778"/>
      <point x="-252" y="807"/>
      <point x="-286" y="807" type="curve" smooth="yes"/>
      <point x="-322" y="807"/>
      <point x="-350" y="778"/>
    </contour>
  </outline>
</glyph>
<glyph name="caronslovakcomb" format="2">
  <advance width="90"/>
  <unicode hex="0315"/>
  <outline>
    <contour>
      <point x="75" y="695" type="line"/>
      <point x="7" y="485" type="line"/>
      <point x="-2" y="484"/>
      <point x="-16" y="486"/>
      <point x="-24" y="487" type="curve"/>
      <point x="-13" y="701" type="line"/>
      <point x="-10" y="704"/>
      <point x="1" y="705"/>
      <point x="20" y="705" type="curve" smooth="yes"/>
      <point x="35" y="705"/>
      <point x="55" y="703"/>
      <point x="75" y="699" type="curve"/>
    </contour>
  </outline>
</glyph>
<glyph name="ringbelowcomb" format="2">
  <unicode hex="0325"/>
  <outline>
    <contour>
      <point x="-406" y="-158" type="curve" smooth="yes"/>
      <point x="-406" y="-224"/>
      <point x="-352" y="-258"/>
      <point x="-286" y="-258" type="curve" smooth="yes"/>
      <point x="-222" y="-258"/>
      <point x="-166" y="-218"/>
      <point x="-166" y="-156" type="curve" smooth="yes"/>
      <point x="-166" y="-88"/>
      <point x="-220" y="-56"/>
      <point x="-286" y="-56" type="curve" smooth="yes"/>
      <point x="-352" y="-56"/>
      <point x="-406" y="-92"/>
    </contour>
    <contour>
      <point x="-286" y="-85" type="curve" smooth="yes"/>
      <point x="-251" y="-85"/>
      <point x="-229" y="-115"/>
      <point x="-229" y="-158" type="curve" smooth="yes"/>
      <point x="-229" y="-200"/>
      <point x="-250" y="-227"/>
      <point x="-286" y="-227" type="curve" smooth="yes"/>
      <point x="-322" y="-227"/>
      <point x="-343" y="-198"/>
      <point x="-343" y="-156" type="curve" smooth="yes"/>
      <point x="-343" y="-112"/>
      <point x="-322" y="-85"/>
    </contour>
  </outline>
</glyph>
<glyph name="macrondblbelowcomb" format="2">
  <unicode hex="035F"/>
  <outline>
    <contour>
      <point x="-427" y="-103" type="line"/>
      <point x="-429" y="-119"/>
      <point x="-429" y="-137"/>
      <point x="-427" y="-153" type="curve"/>
      <point x="427" y="-153" type="line"/>
      <point x="429" y="-137"/>
      <point x="429" y="-119"/>
      <point x="427" y="-103" type="curve"/>
    </contour>
  </outline>
</glyph>
<glyph name="quotesinglbase" format="2">
  <advance width="227"/>
  <unicode hex="201A"/>
  <outline>
    <contour>
      <point x="119" y="31" type="line"/>
      <point x="131" y="13"/>
      <point x="134" y="-3"/>
      <point x="134" y="-19" type="curve" smooth="yes"/>
      <point x="134" y="-72"/>
      <point x="84" y="-117"/>
      <point x="38" y="-137" type="curve"/>
      <point x="54" y="-166" type="line"/>
      <point x="147" y="-127"/>
      <point x="192" y="-57"/>
      <point x="192" y="22" type="curve" smooth="yes"/>
      <point x="192" y="78"/>
      <point x="161" y="129"/>
      <point x="104" y="129" type="curve" smooth="yes"/>
      <point x="63" y="129"/>
      <point x="35" y="100"/>
      <point x="35" y="63" type="curve" smooth="yes"/>
      <point x="35" y="29"/>
      <point x="64" y="7"/>
      <point x="93" y="7" type="curve" smooth="yes"/>
      <point x="109" y="7"/>
      <point x="123" y="12"/>
      <point x="136" y="28" type="curve"/>
    </contour>
  </outline>
</glyph>
<glyph name="guilsinglright" format="2">
  <advance width="322"/>
  <unicode hex="203A"/>
  <outline>
    <contour>
      <point x="193" y="252" type="line"/>
      <point x="147" y="215"/>
      <point x="74" y="138"/>
      <point x="35" y="82" type="curve"/>
      <point x="40" y="74"/>
      <point x="48" y="67"/>
      <point x="56" y="61" type="curve"/>
      <point x="118" y="117"/>
      <point x="200" y="178"/>
      <point x="280" y="228" type="curve"/>
      <point x="281" y="236"/>
      <point x="282" y="245"/>
      <point x="282" y="253" type="curve" smooth="yes"/>
      <point x="282" y="256"/>
      <point x="282" y="260"/>
      <point x="281" y="264" type="curve"/>
      <point x="205" y="311"/>
      <point x="125" y="373"/>
      <point x="61" y="430" type="curve"/>
      <point x="53" y="424"/>
      <point x="45" y="418"/>
      <point x="40" y="410" type="curve"/>
      <point x="78" y="355"/>
      <point x="147" y="278"/>
      <point x="193" y="240" type="curve"/>
    </contour>
  </outline>
  <guideline angle="0" x="0" y="239"/>
</glyph>
<glyph name="A.sc" format="2">
  <advance width="554"/>
  <outline>
    <contour>
      <point x="359" y="187" type="line"/>
      <point x="345" y="228" type="line"/>
      <point x="146" y="228" type="line"/>
      <point x="132" y="187" type="line"/>
    </contour>
    <contour>
      <point x="-24" y="30" type="curve"/>
      <point x="-26" y="19"/>
      <point x="-26" y="9"/>
      <point x="-24" y="-1" type="curve"/>
      <point x="13" y="-1"/>
      <point x="42" y="1"/>
      <point x="77" y="1" type="curve" smooth="yes"/>
      <point x="118" y="1"/>
      <point x="160" y="-1"/>
      <point x="201" y="-1" type="curve"/>
      <point x="203" y="9"/>
      <point x="203" y="19"/>
      <point x="201" y="30" type="curve"/>
      <point x="143" y="36"/>
      <point x="120" y="39"/>
      <point x="120" y="67" type="curve" smooth="yes"/>
      <point x="120" y="79"/>
      <point x="123" y="94"/>
      <point x="133" y="119" type="curve"/>
      <point x="250" y="440" type="line"/>
      <point x="242" y="440" type="line"/>
      <point x="365" y="104" type="line" smooth="yes"/>
      <point x="372" y="84"/>
      <point x="375" y="72"/>
      <point x="375" y="62" type="curve" smooth="yes"/>
      <point x="375" y="38"/>
      <point x="355" y="36"/>
      <point x="295" y="30" type="curve"/>
      <point x="293" y="19"/>
      <point x="293" y="9"/>
      <point x="295" y="-1" type="curve"/>
      <point x="342" y="-1"/>
      <point x="390" y="1"/>
      <point x="437" y="1" type="curve" smooth="yes"/>
      <point x="482" y="1"/>
      <point x="528" y="-1"/>
      <point x="571" y="-1" type="curve"/>
      <point x="573" y="9"/>
      <point x="573" y="19"/>
      <point x="571" y="30" type="curve"/>
      <point x="498" y="38"/>
      <point x="496" y="40"/>
      <point x="461" y="134" type="curve" smooth="yes"/>
      <point x="302" y="557" type="line"/>
      <point x="288" y="557"/>
      <point x="263" y="554"/>
      <point x="250" y="549" type="curve"/>
      <point x="91" y="142" type="line" smooth="yes"/>
      <point x="53" y="43"/>
      <point x="45" y="38"/>
    </contour>
  </outline>
  <guideline angle="0" x="0" y="216"/>
</glyph>
<glyph name="AE.sc" format="2">
  <advance width="756"/>
  <outline>
    <contour>
      <point x="-51" y="30" type="curve"/>
      <point x="-53" y="19"/>
      <point x="-53" y="9"/>
      <point x="-51" y="-1" type="curve"/>
      <point x="-12" y="-1"/>
      <point x="23" y="1"/>
      <point x="57" y="1" type="curve" smooth="yes"/>
      <point x="91" y="1"/>
      <point x="157" y="-1"/>
      <point x="185" y="-1" type="curve"/>
      <point x="187" y="9"/>
      <point x="187" y="19"/>
      <point x="185" y="30" type="curve"/>
      <point x="126" y="34"/>
      <point x="102" y="44"/>
      <point x="102" y="68" type="curve" smooth="yes"/>
      <point x="102" y="81"/>
      <point x="109" y="96"/>
      <point x="122" y="121" type="curve" smooth="yes"/>
      <point x="337" y="530" type="line"/>
      <point x="292" y="532" type="line"/>
      <point x="81" y="140" type="line" smooth="yes"/>
      <point x="30" y="46"/>
      <point x="22" y="38"/>
    </contour>
    <contour>
      <point x="523" y="508" type="line" smooth="yes"/>
      <point x="570" y="508"/>
      <point x="602" y="501"/>
      <point x="623" y="483" type="curve" smooth="yes"/>
      <point x="640" y="468"/>
      <point x="658" y="439"/>
      <point x="670" y="402" type="curve"/>
      <point x="679" y="401"/>
      <point x="692" y="401"/>
      <point x="702" y="402" type="curve"/>
      <point x="694" y="456"/>
      <point x="686" y="505"/>
      <point x="682" y="550" type="curve"/>
      <point x="669" y="550"/>
      <point x="552" y="548"/>
      <point x="438" y="548" type="curve" smooth="yes"/>
      <point x="305" y="548"/>
      <point x="267" y="550"/>
      <point x="224" y="550" type="curve"/>
      <point x="222" y="539"/>
      <point x="222" y="529"/>
      <point x="224" y="519" type="curve"/>
      <point x="257" y="516"/>
      <point x="277" y="514"/>
      <point x="290" y="508" type="curve"/>
    </contour>
    <contour>
      <point x="340" y="522" type="line"/>
      <point x="340" y="108" type="line" smooth="yes"/>
      <point x="340" y="39"/>
      <point x="337" y="39"/>
      <point x="251" y="30" type="curve"/>
      <point x="249" y="19"/>
      <point x="249" y="9"/>
      <point x="251" y="-1" type="curve"/>
      <point x="300" y="-1"/>
      <point x="327" y="1"/>
      <point x="414" y="1" type="curve" smooth="yes"/>
      <point x="464" y="1"/>
      <point x="613" y="0"/>
      <point x="701" y="0" type="curve"/>
      <point x="707" y="42"/>
      <point x="715" y="97"/>
      <point x="728" y="167" type="curve"/>
      <point x="719" y="168"/>
      <point x="707" y="168"/>
      <point x="698" y="167" type="curve"/>
      <point x="680" y="123"/>
      <point x="658" y="88"/>
      <point x="643" y="72" type="curve" smooth="yes"/>
      <point x="621" y="50"/>
      <point x="589" y="42"/>
      <point x="527" y="42" type="curve" smooth="yes"/>
      <point x="442" y="42" type="line"/>
      <point x="440" y="49"/>
      <point x="440" y="77"/>
      <point x="440" y="120" type="curve" smooth="yes"/>
      <point x="440" y="522" type="line"/>
    </contour>
    <contour>
      <point x="570" y="153" type="curve"/>
      <point x="581" y="151"/>
      <point x="593" y="151"/>
      <point x="603" y="153" type="curve"/>
      <point x="602" y="197"/>
      <point x="601" y="230"/>
      <point x="601" y="269" type="curve" smooth="yes"/>
      <point x="601" y="285"/>
      <point x="601" y="305"/>
      <point x="603" y="383" type="curve"/>
      <point x="593" y="385"/>
      <point x="580" y="385"/>
      <point x="570" y="383" type="curve"/>
      <point x="557" y="299"/>
      <point x="545" y="291"/>
      <point x="458" y="291" type="curve" smooth="yes"/>
      <point x="203" y="291" type="line"/>
      <point x="182" y="248" type="line"/>
      <point x="466" y="248" type="line" smooth="yes"/>
      <point x="545" y="248"/>
      <point x="558" y="244"/>
    </contour>
  </outline>
  <guideline angle="0" x="0" y="501"/>
  <guideline angle="0" x="0" y="282"/>
  <guideline angle="0" x="0" y="250"/>
  <guideline angle="0" x="0" y="508"/>
</glyph>
<glyph name="G_macronbelowcomb_hlinebelow.sc" format="2">
  <advance width="1346"/>
  <outline>
    <component base="G.sc"/>
    <component base="H.sc" xOffset="647"/>
    <contour>
      <point x="194" y="-103" type="line"/>
      <point x="192" y="-119"/>
      <point x="192" y="-137"/>
      <point x="194" y="-153" type="curve"/>
      <point x="1137" y="-153" type="line"/>
      <point x="1139" y="-137"/>
      <point x="1139" y="-119"/>
      <point x="1137" y="-103" type="curve"/>
    </contour>
  </outline>
</glyph>
<glyph name="Klinebelow_H_macronbelowcomb" format="2">
  <advance width="1555"/>
  <outline>
    <component base="K"/>
    <component base="H" xOffset="715"/>
    <contour>
      <point x="238" y="-103" type="line"/>
      <point x="236" y="-119"/>
      <point x="236" y="-137"/>
      <point x="238" y="-153" type="curve"/>
      <point x="1316" y="-153" type="line"/>
      <point x="1318" y="-137"/>
      <point x="1318" y="-119"/>
      <point x="1316" y="-103" type="curve"/>
    </contour>
  </outline>
  <guideline angle="90" x="241" y="0"/>
  <guideline angle="90" x="1315" y="0"/>
</glyph>
<glyph name="Q.sc" format="2">
  <advance width="660"/>
  <outline>
    <contour>
      <point x="284" y="-13" type="curve" smooth="yes"/>
      <point x="307" y="-16"/>
      <point x="318" y="-18"/>
      <point x="338" y="-40" type="curve" smooth="yes"/>
      <point x="350" y="-54"/>
      <point x="362" y="-71"/>
      <point x="376" y="-90" type="curve" smooth="yes"/>
      <point x="412" y="-141"/>
      <point x="451" y="-197"/>
      <point x="528" y="-197" type="curve" smooth="yes"/>
      <point x="587" y="-197"/>
      <point x="636" y="-167"/>
      <point x="679" y="-127" type="curve"/>
      <point x="675" y="-118"/>
      <point x="670" y="-108"/>
      <point x="665" y="-102" type="curve"/>
      <point x="642" y="-113"/>
      <point x="618" y="-119"/>
      <point x="593" y="-119" type="curve" smooth="yes"/>
      <point x="527" y="-119"/>
      <point x="478" y="-95"/>
      <point x="382" y="-10" type="curve"/>
      <point x="382" y="3" type="line"/>
      <point x="372" y="-8" type="line"/>
      <point x="514" y="10"/>
      <point x="600" y="127"/>
      <point x="600" y="278" type="curve" smooth="yes"/>
      <point x="600" y="442"/>
      <point x="497" y="560"/>
      <point x="328" y="560" type="curve" smooth="yes"/>
      <point x="156" y="560"/>
      <point x="46" y="439"/>
      <point x="46" y="267" type="curve" smooth="yes"/>
      <point x="46" y="113"/>
      <point x="132" y="9"/>
    </contour>
    <contour>
      <point x="487" y="269" type="curve" smooth="yes"/>
      <point x="487" y="146"/>
      <point x="445" y="24"/>
      <point x="328" y="24" type="curve" smooth="yes"/>
      <point x="206" y="24"/>
      <point x="161" y="154"/>
      <point x="161" y="274" type="curve" smooth="yes"/>
      <point x="161" y="393"/>
      <point x="205" y="520"/>
      <point x="325" y="520" type="curve" smooth="yes"/>
      <point x="444" y="520"/>
      <point x="487" y="394"/>
    </contour>
  </outline>
  <guideline angle="346.977" x="0" y="41"/>
  <guideline angle="134.994" x="190" y="0"/>
</glyph>
<glyph name="U.sc" format="2">
  <advance width="627"/>
  <outline>
    <contour>
      <point x="13" y="550" type="curve"/>
      <point x="11" y="539"/>
      <point x="11" y="529"/>
      <point x="13" y="519" type="curve"/>
      <point x="99" y="512"/>
      <point x="104" y="510"/>
      <point x="104" y="430" type="curve" smooth="yes"/>
      <point x="104" y="191" type="line" smooth="yes"/>
      <point x="104" y="54"/>
      <point x="189" y="-11"/>
      <point x="314" y="-11" type="curve" smooth="yes"/>
      <point x="458" y="-11"/>
      <point x="529" y="75"/>
      <point x="529" y="220" type="curve" smooth="yes"/>
      <point x="529" y="432" type="line" smooth="yes"/>
      <point x="529" y="509"/>
      <point x="535" y="509"/>
      <point x="620" y="519" type="curve"/>
      <point x="622" y="529"/>
      <point x="622" y="539"/>
      <point x="620" y="550" type="curve"/>
      <point x="586" y="549"/>
      <point x="533" y="547"/>
      <point x="503" y="547" type="curve" smooth="yes"/>
      <point x="473" y="547"/>
      <point x="420" y="549"/>
      <point x="387" y="549" type="curve"/>
      <point x="385" y="538"/>
      <point x="385" y="528"/>
      <point x="387" y="518" type="curve"/>
      <point x="479" y="509"/>
      <point x="484" y="509"/>
      <point x="484" y="419" type="curve" smooth="yes"/>
      <point x="484" y="240" type="line" smooth="yes"/>
      <point x="484" y="105"/>
      <point x="436" y="41"/>
      <point x="341" y="41" type="curve" smooth="yes"/>
      <point x="252" y="41"/>
      <point x="205" y="99"/>
      <point x="205" y="222" type="curve" smooth="yes"/>
      <point x="205" y="443" type="line" smooth="yes"/>
      <point x="205" y="511"/>
      <point x="209" y="511"/>
      <point x="295" y="520" type="curve"/>
      <point x="297" y="530"/>
      <point x="297" y="540"/>
      <point x="295" y="551" type="curve"/>
      <point x="258" y="550"/>
      <point x="188" y="548"/>
      <point x="153" y="548" type="curve" smooth="yes"/>
      <point x="118" y="548"/>
      <point x="50" y="550"/>
    </contour>
  </outline>
</glyph>
<glyph name="W.sc" format="2">
  <advance width="829"/>
  <outline>
    <contour>
      <point x="519" y="-9" type="line"/>
      <point x="531" y="-8"/>
      <point x="555" y="-5"/>
      <point x="568" y="-1" type="curve"/>
      <point x="732" y="407" type="line" smooth="yes"/>
      <point x="772" y="507"/>
      <point x="780" y="511"/>
      <point x="854" y="519" type="curve"/>
      <point x="856" y="529"/>
      <point x="856" y="539"/>
      <point x="854" y="550" type="curve"/>
      <point x="817" y="550"/>
      <point x="788" y="548"/>
      <point x="750" y="548" type="curve" smooth="yes"/>
      <point x="724" y="548"/>
      <point x="650" y="550"/>
      <point x="624" y="550" type="curve"/>
      <point x="622" y="539"/>
      <point x="622" y="529"/>
      <point x="624" y="519" type="curve"/>
      <point x="684" y="513"/>
      <point x="704" y="508"/>
      <point x="704" y="484" type="curve" smooth="yes"/>
      <point x="704" y="472"/>
      <point x="698" y="456"/>
      <point x="688" y="430" type="curve" smooth="yes"/>
      <point x="568" y="110" type="line"/>
      <point x="579" y="114" type="line"/>
      <point x="467" y="445" type="line" smooth="yes"/>
      <point x="460" y="465"/>
      <point x="458" y="477"/>
      <point x="458" y="487" type="curve" smooth="yes"/>
      <point x="458" y="511"/>
      <point x="476" y="513"/>
      <point x="537" y="519" type="curve"/>
      <point x="539" y="529"/>
      <point x="539" y="539"/>
      <point x="537" y="550" type="curve"/>
      <point x="497" y="550"/>
      <point x="437" y="548"/>
      <point x="400" y="548" type="curve" smooth="yes"/>
      <point x="361" y="548"/>
      <point x="316" y="550"/>
      <point x="277" y="550" type="curve"/>
      <point x="275" y="539"/>
      <point x="275" y="529"/>
      <point x="277" y="519" type="curve"/>
      <point x="338" y="512"/>
      <point x="342" y="510"/>
      <point x="371" y="417" type="curve"/>
    </contour>
    <contour>
      <point x="399" y="379" type="line"/>
      <point x="290" y="112" type="line"/>
      <point x="302" y="117" type="line"/>
      <point x="192" y="445" type="line" smooth="yes"/>
      <point x="185" y="466"/>
      <point x="183" y="478"/>
      <point x="182" y="488" type="curve"/>
      <point x="182" y="511"/>
      <point x="197" y="513"/>
      <point x="245" y="519" type="curve"/>
      <point x="247" y="529"/>
      <point x="247" y="539"/>
      <point x="245" y="550" type="curve"/>
      <point x="208" y="550"/>
      <point x="154" y="548"/>
      <point x="120" y="548" type="curve" smooth="yes"/>
      <point x="77" y="548"/>
      <point x="28" y="550"/>
      <point x="-13" y="550" type="curve"/>
      <point x="-15" y="539"/>
      <point x="-15" y="529"/>
      <point x="-13" y="519" type="curve"/>
      <point x="60" y="511"/>
      <point x="64" y="511"/>
      <point x="96" y="418" type="curve" smooth="yes"/>
      <point x="241" y="-7" type="line"/>
      <point x="254" y="-6"/>
      <point x="277" y="-3"/>
      <point x="291" y="1" type="curve"/>
      <point x="420" y="320" type="line"/>
    </contour>
  </outline>
</glyph>
<glyph name="brevecomb.cap" format="2">
  <outline>
    <contour>
      <point x="-409" y="914" type="curve"/>
      <point x="-421" y="912"/>
      <point x="-431" y="910"/>
      <point x="-442" y="907" type="curve"/>
      <point x="-427" y="803"/>
      <point x="-368" y="743"/>
      <point x="-285" y="743" type="curve" smooth="yes"/>
      <point x="-202" y="743"/>
      <point x="-143" y="803"/>
      <point x="-129" y="907" type="curve"/>
      <point x="-140" y="910"/>
      <point x="-150" y="912"/>
      <point x="-161" y="914" type="curve"/>
      <point x="-180" y="849"/>
      <point x="-220" y="822"/>
      <point x="-286" y="822" type="curve" smooth="yes"/>
      <point x="-351" y="822"/>
      <point x="-391" y="848"/>
    </contour>
  </outline>
  <guideline angle="0" x="0" y="525"/>
  <guideline angle="0" x="0" y="735"/>
</glyph>
<glyph name="dotaccentcomb.cap" format="2">
  <outline>
    <contour>
      <point x="-355" y="816" type="curve" smooth="yes"/>
      <point x="-355" y="780"/>
      <point x="-325" y="749"/>
      <point x="-288" y="749" type="curve" smooth="yes"/>
      <point x="-248" y="749"/>
      <point x="-218" y="783"/>
      <point x="-218" y="817" type="curve" smooth="yes"/>
      <point x="-218" y="853"/>
      <point x="-250" y="884"/>
      <point x="-286" y="884" type="curve" smooth="yes"/>
      <point x="-324" y="884"/>
      <point x="-355" y="853"/>
    </contour>
  </outline>
  <guideline angle="90" x="-154" y="0"/>
</glyph>
<glyph name="f._asc" format="2">
  <advance width="312"/>
  <outline>
    <contour>
      <point x="27" y="-1" type="curve"/>
      <point x="68" y="-1"/>
      <point x="102" y="1"/>
      <point x="152" y="1" type="curve" smooth="yes"/>
      <point x="210" y="1"/>
      <point x="234" y="-1"/>
      <point x="278" y="-1" type="curve"/>
      <point x="279" y="9"/>
      <point x="280" y="20"/>
      <point x="278" y="30" type="curve"/>
      <point x="211" y="34"/>
      <point x="205" y="36"/>
      <point x="205" y="114" type="curve" smooth="yes"/>
      <point x="205" y="531" type="line" smooth="yes"/>
      <point x="205" y="663"/>
      <point x="231" y="711"/>
      <point x="299" y="711" type="curve"/>
      <point x="300" y="711"/>
      <point x="312" y="711"/>
      <point x="316" y="706" type="curve"/>
      <point x="310" y="714" type="line"/>
      <point x="312" y="702"/>
      <point x="335" y="644"/>
      <point x="393" y="644" type="curve" smooth="yes"/>
      <point x="426" y="644"/>
      <point x="439" y="664"/>
      <point x="439" y="685" type="curve" smooth="yes"/>
      <point x="439" y="732"/>
      <point x="380" y="755"/>
      <point x="321" y="755" type="curve" smooth="yes"/>
      <point x="263" y="755"/>
      <point x="210" y="735"/>
      <point x="171" y="696" type="curve" smooth="yes"/>
      <point x="131" y="656"/>
      <point x="108" y="598"/>
      <point x="104" y="509" type="curve" smooth="yes"/>
      <point x="102" y="470"/>
      <point x="94" y="465"/>
      <point x="20" y="454" type="curve"/>
      <point x="18" y="446"/>
      <point x="18" y="437"/>
      <point x="20" y="427" type="curve"/>
      <point x="103" y="427" type="line"/>
      <point x="103" y="104" type="line" smooth="yes"/>
      <point x="103" y="38"/>
      <point x="96" y="34"/>
      <point x="27" y="30" type="curve"/>
      <point x="26" y="20"/>
      <point x="26" y="9"/>
    </contour>
    <contour>
      <point x="331" y="427" type="line"/>
      <point x="333" y="443"/>
      <point x="333" y="458"/>
      <point x="331" y="473" type="curve"/>
      <point x="194" y="473" type="line"/>
      <point x="194" y="427" type="line"/>
    </contour>
  </outline>
</glyph>
<glyph name="five.LP" format="2">
  <advance width="544"/>
  <outline>
    <contour>
      <point x="134" y="699" type="line"/>
      <point x="81" y="363" type="line"/>
      <point x="88" y="360" type="line"/>
      <point x="128" y="371"/>
      <point x="171" y="374"/>
      <point x="203" y="374" type="curve" smooth="yes"/>
      <point x="351" y="374"/>
      <point x="401" y="291"/>
      <point x="401" y="208" type="curve" smooth="yes"/>
      <point x="401" y="108"/>
      <point x="326" y="24"/>
      <point x="218" y="24" type="curve" smooth="yes"/>
      <point x="198" y="24"/>
      <point x="176" y="27"/>
      <point x="154" y="34" type="curve"/>
      <point x="176" y="15" type="line"/>
      <point x="168" y="100"/>
      <point x="122" y="141"/>
      <point x="80" y="141" type="curve" smooth="yes"/>
      <point x="54" y="141"/>
      <point x="30" y="124"/>
      <point x="30" y="93" type="curve" smooth="yes"/>
      <point x="30" y="29"/>
      <point x="113" y="-12"/>
      <point x="212" y="-12" type="curve" smooth="yes"/>
      <point x="348" y="-12"/>
      <point x="499" y="64"/>
      <point x="499" y="238" type="curve" smooth="yes"/>
      <point x="499" y="364"/>
      <point x="421" y="461"/>
      <point x="235" y="461" type="curve" smooth="yes"/>
      <point x="202" y="461"/>
      <point x="165" y="459"/>
      <point x="126" y="452" type="curve"/>
      <point x="137" y="442" type="line"/>
      <point x="166" y="618" type="line"/>
      <point x="154" y="606" type="line"/>
      <point x="460" y="604" type="line"/>
      <point x="468" y="633"/>
      <point x="475" y="672"/>
      <point x="479" y="702" type="curve"/>
    </contour>
  </outline>
</glyph>
<glyph name="five.sc" format="2">
  <advance width="452"/>
  <outline>
    <contour>
      <point x="117" y="548" type="line"/>
      <point x="76" y="271" type="line"/>
      <point x="83" y="268" type="line"/>
      <point x="113" y="279"/>
      <point x="147" y="282"/>
      <point x="171" y="282" type="curve" smooth="yes"/>
      <point x="282" y="282"/>
      <point x="320" y="221"/>
      <point x="320" y="160" type="curve" smooth="yes"/>
      <point x="320" y="86"/>
      <point x="265" y="23"/>
      <point x="189" y="23" type="curve" smooth="yes"/>
      <point x="173" y="23"/>
      <point x="158" y="26"/>
      <point x="141" y="33" type="curve"/>
      <point x="165" y="16" type="line"/>
      <point x="147" y="97"/>
      <point x="111" y="132"/>
      <point x="74" y="132" type="curve" smooth="yes"/>
      <point x="49" y="132"/>
      <point x="28" y="116"/>
      <point x="28" y="83" type="curve" smooth="yes"/>
      <point x="28" y="24"/>
      <point x="97" y="-12"/>
      <point x="182" y="-12" type="curve" smooth="yes"/>
      <point x="294" y="-12"/>
      <point x="410" y="51"/>
      <point x="410" y="190" type="curve" smooth="yes"/>
      <point x="410" y="283"/>
      <point x="349" y="362"/>
      <point x="202" y="362" type="curve" smooth="yes"/>
      <point x="178" y="362"/>
      <point x="150" y="360"/>
      <point x="118" y="353" type="curve"/>
      <point x="128" y="345" type="line"/>
      <point x="149" y="471" type="line"/>
      <point x="136" y="458" type="line"/>
      <point x="372" y="456" type="line"/>
      <point x="380" y="484"/>
      <point x="386" y="522"/>
      <point x="390" y="551" type="curve"/>
    </contour>
  </outline>
</glyph>
<glyph name="four.numr" format="2">
  <advance width="364"/>
  <outline>
    <contour>
      <point x="231" y="336" type="curve" smooth="yes"/>
      <point x="244" y="336"/>
      <point x="257" y="336"/>
      <point x="269" y="337" type="curve"/>
      <point x="269" y="637" type="line" smooth="yes"/>
      <point x="269" y="649"/>
      <point x="269" y="662"/>
      <point x="270" y="693" type="curve"/>
      <point x="253" y="697"/>
      <point x="233" y="699"/>
      <point x="213" y="699" type="curve"/>
      <point x="144" y="618"/>
      <point x="79" y="546"/>
      <point x="14" y="463" type="curve"/>
      <point x="14" y="452"/>
      <point x="15" y="432"/>
      <point x="16" y="420" type="curve"/>
      <point x="345" y="420" type="line"/>
      <point x="347" y="439"/>
      <point x="349" y="459"/>
      <point x="349" y="480" type="curve"/>
      <point x="66" y="480" type="line"/>
      <point x="107" y="529"/>
      <point x="149" y="581"/>
      <point x="194" y="630" type="curve"/>
      <point x="194" y="337" type="line"/>
      <point x="205" y="336"/>
      <point x="220" y="336"/>
    </contour>
  </outline>
</glyph>
<glyph name="tildecomb.cap" format="2">
  <outline>
    <contour>
      <point x="-136" y="897" type="curve"/>
      <point x="-152" y="857"/>
      <point x="-172" y="837"/>
      <point x="-196" y="837" type="curve" smooth="yes"/>
      <point x="-220" y="837"/>
      <point x="-245" y="854"/>
      <point x="-270" y="868" type="curve" smooth="yes"/>
      <point x="-298" y="884"/>
      <point x="-319" y="890"/>
      <point x="-336" y="890" type="curve" smooth="yes"/>
      <point x="-389" y="890"/>
      <point x="-430" y="844"/>
      <point x="-459" y="767" type="curve"/>
      <point x="-448" y="762"/>
      <point x="-437" y="758"/>
      <point x="-427" y="756" type="curve"/>
      <point x="-411" y="795"/>
      <point x="-391" y="814"/>
      <point x="-367" y="814" type="curve" smooth="yes"/>
      <point x="-341" y="814"/>
      <point x="-318" y="798"/>
      <point x="-293" y="784" type="curve" smooth="yes"/>
      <point x="-265" y="768"/>
      <point x="-245" y="762"/>
      <point x="-226" y="762" type="curve" smooth="yes"/>
      <point x="-173" y="762"/>
      <point x="-131" y="806"/>
      <point x="-104" y="886" type="curve"/>
      <point x="-114" y="890"/>
      <point x="-124" y="894"/>
    </contour>
  </outline>
</glyph>
